<mxfile host="Electron" modified="2023-12-09T16:20:52.955Z" agent="Mozilla/5.0 (X11; Linux x86_64) AppleWebKit/537.36 (KHTML, like Gecko) draw.io/22.0.3 Chrome/114.0.5735.289 Electron/25.8.4 Safari/537.36" etag="jDClaMs87iTL0qrnovdi" version="22.0.3" type="device">
  <diagram name="ページ1" id="yJlaJAaK_y4wRKalKD-w">
    <mxGraphModel dx="617" dy="686" grid="1" gridSize="10" guides="1" tooltips="1" connect="1" arrows="1" fold="1" page="1" pageScale="1" pageWidth="827" pageHeight="1169" math="0" shadow="0">
      <root>
        <mxCell id="0" />
        <mxCell id="1" parent="0" />
        <mxCell id="b2Bpt9O_70VfbBV7f4z6-2" value="" style="edgeStyle=orthogonalEdgeStyle;rounded=0;orthogonalLoop=1;jettySize=auto;html=1;" edge="1" parent="1" source="2eNGSXswjNv0mSMguoOi-4" target="b2Bpt9O_70VfbBV7f4z6-1">
          <mxGeometry relative="1" as="geometry" />
        </mxCell>
        <mxCell id="2eNGSXswjNv0mSMguoOi-4" value="呼び出し" style="ellipse;whiteSpace=wrap;html=1;" parent="1" vertex="1">
          <mxGeometry x="220" y="120" width="110" height="40" as="geometry" />
        </mxCell>
        <mxCell id="2eNGSXswjNv0mSMguoOi-9" value="終了" style="ellipse;whiteSpace=wrap;html=1;" parent="1" vertex="1">
          <mxGeometry x="232.5" y="300" width="85" height="40" as="geometry" />
        </mxCell>
        <mxCell id="b2Bpt9O_70VfbBV7f4z6-3" value="" style="edgeStyle=orthogonalEdgeStyle;rounded=0;orthogonalLoop=1;jettySize=auto;html=1;" edge="1" parent="1" source="b2Bpt9O_70VfbBV7f4z6-1" target="2eNGSXswjNv0mSMguoOi-9">
          <mxGeometry relative="1" as="geometry" />
        </mxCell>
        <mxCell id="b2Bpt9O_70VfbBV7f4z6-1" value="ページ遷移" style="ellipse;whiteSpace=wrap;html=1;" vertex="1" parent="1">
          <mxGeometry x="220" y="210" width="110" height="40" as="geometry" />
        </mxCell>
      </root>
    </mxGraphModel>
  </diagram>
</mxfile>
